<?xml version="1.0" encoding="utf-8"?>
<!-- Generator: Adobe Illustrator 21.0.0, SVG Export Plug-In . SVG Version: 6.00 Build 0)  -->
<svg version="1.1" id="Camada_1" xmlns="http://www.w3.org/2000/svg" xmlns:xlink="http://www.w3.org/1999/xlink" x="0px" y="0px"
	 viewBox="0 0 512 512" style="enable-background:new 0 0 512 512;" xml:space="preserve">
<style type="text/css">
	.st0{fill:#C0392B;}
	.st1{fill:#E74C3C;}
	.st2{opacity:0.15;enable-background:new    ;}
	.st3{opacity:0.15;fill:#FFFFFF;enable-background:new    ;}
	.st4{fill:#FFFFFF;}
	.st5{opacity:0.2;fill:#95A5A6;enable-background:new    ;}
	.st6{fill:#E6E6E6;}
</style>
<g>
	<path class="st0" d="M30.7,512h450.6c17,0,30.7-13.8,30.7-30.7V30.7c0-17-13.8-30.7-30.7-30.7H30.7C13.8,0,0,13.8,0,30.7v450.6
		C0,498.2,13.8,512,30.7,512z"/>
	<path class="st1" d="M512,153.6h-0.1c-1.3-14.3-13.3-25.6-28-25.6H32c-17,0-32-13.8-32-30.7V30.7C0,13.8,13.8,0,30.7,0h450.6
		c17,0,30.7,13.8,30.7,30.7V153.6z"/>
	<path class="st2" d="M25.6,512h10.2V0H25.6V512z"/>
	<path class="st3" d="M35.8,512h10.2V0H35.8V512z"/>
	<path class="st4" d="M512,51.2c0-14.1-11.5-25.6-25.6-25.6H35.8c-5.7,0-10.2,4.6-10.2,10.2v56.3c0,5.7,4.6,10.2,10.2,10.2h445.4
		c17,0,30.7,13.8,30.7,30.7V56.3h-0.5C511.8,54.7,512,53,512,51.2z"/>
	<path class="st5" d="M512,79V58.9c0,0,0.9-20.5-25.6-20.5H25.6v10.2h455.7c16.3,0,29.6,12.7,30.6,28.8c-0.5-5.1-4-18.5-25.5-18.5
		H25.6v10.2h455.7c16.3,0,29.6,12.7,30.6,28.8c-0.5-5.1-4-18.5-25.5-18.5H25.6v10.2h455.7c17,0,30.7,13.8,30.7,30.7V79z"/>
	<g>
		<rect x="238.1" y="207.6" class="st4" width="35.8" height="212.4"/>
		<rect x="179.2" y="255.7" class="st4" width="153.6" height="35.8"/>
		<rect x="266.2" y="291.5" class="st6" width="7.7" height="128.5"/>
		<rect x="179.2" y="255.7" class="st6" width="58.9" height="7.7"/>
		<rect x="325.1" y="255.7" class="st6" width="7.7" height="35.8"/>
		<rect x="265.6" y="207.6" class="st6" width="8.9" height="55.8"/>
		<rect x="238.1" y="207.6" class="st6" width="35.8" height="7.7"/>
		<rect x="265.6" y="255.1" class="st6" width="67.2" height="8.8"/>
	</g>
</g>
</svg>
