<?xml version="1.0" encoding="utf-8"?>
<!-- Generator: Adobe Illustrator 21.0.0, SVG Export Plug-In . SVG Version: 6.00 Build 0)  -->
<svg version="1.1" id="Camada_1" xmlns="http://www.w3.org/2000/svg" xmlns:xlink="http://www.w3.org/1999/xlink" x="0px" y="0px"
	 viewBox="0 0 100 100" enable-background="new 0 0 100 100" xml:space="preserve">
<path fill="#C0392B" d="M6,100h88c3.313,0,6-2.687,6-6V6c0-3.314-2.687-6-6-6H6C2.687,0,0,2.686,0,6v88C0,97.313,2.687,100,6,100z"
	/>
<path fill="#E74C3C" d="M100,30h-0.025c-0.253-2.802-2.606-5-5.475-5H6.25C2.937,25,0,22.314,0,19V6c0-3.313,2.687-6,6-6h88
	c3.313,0,6,2.687,6,6.001V30z"/>
<path opacity="0.15" enable-background="new    " d="M5,100h2V0H5V100z"/>
<path opacity="0.15" fill="#FFFFFF" enable-background="new    " d="M7,100h2V0H7V100z"/>
<path fill="#FFFFFF" d="M100,10.001c0-2.762-2.238-5-5-5H7c-1.104,0-2,0.896-2,2v11c0,1.104,0.896,2,2,2h87c3.313,0,6,2.687,6,6v-15
	h-0.101C99.965,10.678,100,10.343,100,10.001z"/>
<path opacity="0.2" fill="#95A5A6" enable-background="new    " d="M100,15.423v-3.921c0,0,0.183-4-5-4H5v2h89
	c3.184,0,5.781,2.482,5.98,5.616c-0.107-1-0.789-3.615-4.98-3.615H5v2h89c3.184,0,5.781,2.482,5.98,5.616
	c-0.107-1.001-0.789-3.616-4.98-3.616H5v2h89c3.313,0,6,2.687,6,6V15.423z"/>
<g>
	<rect x="46.5" y="40.543" fill="#FFFFFF" width="7" height="41.48"/>
	<rect x="35" y="49.934" fill="#FFFFFF" width="30" height="7"/>
	<rect x="52" y="56.934" fill="#E6E6E6" width="1.5" height="25.09"/>
	<rect x="35" y="49.934" fill="#E6E6E6" width="11.5" height="1.5"/>
	<rect x="63.5" y="49.934" fill="#E6E6E6" width="1.5" height="7"/>
	<rect x="51.88" y="40.543" fill="#E6E6E6" width="1.74" height="10.89"/>
	<rect x="46.5" y="40.543" fill="#E6E6E6" width="7" height="1.5"/>
	<rect x="51.88" y="49.828" fill="#E6E6E6" width="13.12" height="1.711"/>
</g>
</svg>
